# xmcd
#
# Track frame offsets:
#	150
#	10666
#	23761
#	44020
#	60514
#	78105
#	97085
#	110638
#	120263
#	143737
#
# Disc length: 2184
#
# Revision: 1
# Processed by: cddbd v1.5.1PL0 Copyright (c) Steve Scherf et al.
# Submitted via: dBpowerAMP V4.0
# Normalized: r0:TRMNUM
#
DISCID=7608860a
DTITLE=Crosby Stills Nash and Joung - Deja Vu
DYEAR=1900
DGENRE=
TTITLE0=Carry on
TTITLE1=Teacher your children
TTITLE2=Almost cut my hair
TTITLE3=Helpless
TTITLE4=Woodstock
TTITLE5=Deja vu
TTITLE6=Our house
TTITLE7=4 and 20
TTITLE8=Contry girl
TTITLE9=Everybody i love you
EXTD=
EXTT0=
EXTT1=
EXTT2=
EXTT3=
EXTT4=
EXTT5=
EXTT6=
EXTT7=
EXTT8=
EXTT9=
PLAYORDER=
